<?xml version="1.0" standalone="no"?>
<!DOCTYPE svg PUBLIC "-//W3C//DTD SVG 20010904//EN"
 "http://www.w3.org/TR/2001/REC-SVG-20010904/DTD/svg10.dtd">
<svg version="1.0" xmlns="http://www.w3.org/2000/svg"
 width="680.000000pt" height="351.000000pt" viewBox="0 0 680.000000 351.000000"
 preserveAspectRatio="xMidYMid meet">

<g transform="translate(0.000000,351.000000) scale(0.100000,-0.100000)"
fill="#000000" stroke="none">
<path d="M1241 3029 c-29 -10 -64 -29 -77 -43 -14 -13 -44 -29 -69 -35 -31 -8
-57 -25 -92 -61 -45 -47 -73 -65 -57 -37 4 7 3 9 -2 4 -5 -5 -9 -12 -9 -16 0
-4 -17 -24 -37 -45 -21 -21 -36 -41 -35 -45 4 -12 -46 -60 -56 -54 -6 3 -7 1
-3 -6 4 -7 -5 -26 -22 -46 -17 -18 -33 -43 -37 -54 -3 -12 -11 -18 -17 -15 -7
4 -8 2 -4 -5 4 -6 -7 -42 -24 -80 -18 -38 -30 -74 -26 -79 3 -5 1 -22 -4 -38
-43 -129 -67 -256 -40 -214 9 13 10 13 10 0 0 -9 -5 -21 -11 -27 -28 -28 21
-473 52 -473 4 0 11 -20 15 -45 3 -25 10 -48 14 -50 5 -3 16 -31 25 -63 22
-74 116 -253 129 -245 6 3 8 3 4 -2 -9 -10 32 -85 46 -85 5 0 6 -3 3 -6 -6 -7
6 -26 122 -184 101 -139 346 -360 398 -360 13 0 23 -4 23 -10 0 -5 18 -15 40
-21 22 -7 40 -17 40 -24 0 -7 11 -10 28 -7 18 2 33 -2 41 -12 8 -9 26 -16 41
-16 16 0 30 -4 32 -10 2 -5 32 -12 68 -15 36 -3 90 -8 122 -10 36 -4 59 -2 63
5 4 6 13 9 21 6 8 -3 14 -1 14 5 0 6 7 8 17 5 23 -9 124 15 130 31 3 7 9 11
13 8 13 -8 60 17 53 28 -3 6 -1 7 5 3 17 -10 59 15 143 84 141 116 184 162
172 184 -3 6 -3 8 2 4 10 -10 36 24 73 99 31 59 31 62 12 68 -33 10 -54 63
-54 130 1 94 29 132 117 159 13 4 17 17 17 62 0 49 -2 55 -15 44 -8 -7 -15
-21 -15 -32 0 -17 -6 -19 -47 -16 -47 3 -48 4 -45 33 4 41 31 76 76 98 25 13
35 24 32 35 -2 10 -7 38 -11 65 -3 26 -11 47 -16 47 -6 0 -8 9 -4 19 3 11 2
22 -3 25 -5 3 -9 20 -10 38 0 18 -5 34 -11 36 -5 2 -8 9 -5 16 12 30 -92 309
-182 487 -58 117 -171 299 -186 299 -4 0 -8 7 -8 15 0 8 -4 15 -10 15 -5 0
-10 7 -10 15 0 8 -34 49 -75 90 -41 42 -75 81 -75 86 0 5 -6 9 -14 9 -8 0 -21
9 -29 21 -16 21 -82 73 -128 99 -15 8 -47 26 -71 40 -99 56 -231 88 -360 88
-54 -1 -95 -5 -92 -9 3 -5 2 -9 -3 -10 -4 0 -17 -2 -28 -4 -20 -4 -20 -4 -1
11 19 13 19 14 -5 13 -13 0 -48 -9 -78 -20z m-211 -173 c0 -3 -4 -8 -10 -11
-5 -3 -10 -1 -10 4 0 6 5 11 10 11 6 0 10 -2 10 -4z m-287 -321 c-3 -9 -8 -14
-10 -11 -3 3 -2 9 2 15 9 16 15 13 8 -4z m-23 -53 c0 -5 -7 -17 -15 -28 -14
-18 -14 -17 -4 9 12 27 19 34 19 19z m746 -480 c1 -9 3 -32 5 -49 2 -18 7 -33
11 -33 4 0 8 -12 8 -27 0 -32 21 -95 35 -105 5 -4 7 -8 3 -8 -9 0 20 -80 34
-95 6 -6 7 -2 3 10 -6 19 -6 19 5 1 10 -15 9 -20 -1 -27 -11 -7 -11 -9 3 -9 9
0 20 -10 24 -22 4 -13 11 -26 16 -29 5 -3 11 -15 12 -25 2 -10 9 -18 15 -17 6
2 21 -15 33 -37 13 -22 39 -47 58 -57 19 -10 54 -36 78 -58 24 -22 42 -34 40
-26 -2 7 4 16 12 19 8 2 12 1 7 -3 -9 -10 31 -55 49 -55 7 0 15 -6 17 -12 3
-7 6 -3 6 10 1 15 -5 22 -16 22 -10 0 -25 5 -33 10 -11 7 -6 8 18 4 l32 -6 0
66 0 66 45 0 c42 0 45 -2 45 -27 1 -24 2 -25 11 -10 16 28 68 49 104 43 40 -8
70 -40 84 -91 14 -52 14 -268 0 -319 -25 -90 -105 -123 -168 -70 l-31 26 0
-121 0 -121 -45 0 -45 0 0 239 c0 147 -4 242 -10 246 -6 4 -7 -1 -3 -12 7 -17
6 -17 -21 0 -15 10 -34 16 -41 13 -7 -2 -19 2 -26 10 -6 8 -14 12 -16 10 -3
-3 -21 10 -40 27 -20 18 -39 31 -43 30 -8 -2 -38 28 -39 40 -1 4 -4 6 -8 5 -5
-2 -7 -12 -6 -23 2 -17 0 -16 -11 5 -8 14 -10 27 -5 28 5 2 -11 27 -35 55 -25
28 -43 54 -40 59 3 5 0 7 -8 6 -7 -2 -12 5 -12 14 1 10 -3 16 -10 15 -6 -1
-11 5 -12 13 0 8 -10 31 -22 50 -12 19 -22 40 -22 46 0 5 -11 25 -25 44 -28
38 -33 59 -9 39 13 -11 13 -7 -2 24 -9 20 -21 34 -26 31 -4 -3 -5 3 -1 12 5
13 3 15 -7 9 -9 -6 -10 -4 -3 9 6 11 6 35 -1 66 -7 38 -7 55 4 75 14 26 22 26
26 -3z m954 -576 c0 -156 3 -291 6 -300 3 -9 17 -16 30 -16 22 0 24 -4 24 -45
0 -45 0 -45 -35 -45 -19 0 -46 5 -60 12 -52 24 -55 41 -55 373 l0 305 45 0 45
0 0 -284z m-646 -82 c10 -25 1 -27 -19 -4 -15 17 -16 20 -3 20 9 0 19 -7 22
-16z"/>
<path d="M2054 1416 c-17 -13 -19 -27 -19 -149 0 -144 7 -167 50 -167 46 0 55
26 55 167 0 113 -2 132 -18 146 -23 21 -42 21 -68 3z"/>
<path d="M969 2873 c-13 -16 -12 -17 4 -4 9 7 17 15 17 17 0 8 -8 3 -21 -13z"/>
<path d="M2642 1207 c-8 -9 -12 -33 -10 -59 l3 -43 13 43 c7 24 12 51 10 59
-3 15 -4 15 -16 0z"/>
</g>
</svg>
